<?xml version="1.0" standalone="no"?>
<!DOCTYPE svg PUBLIC "-//W3C//DTD SVG 20010904//EN"
 "http://www.w3.org/TR/2001/REC-SVG-20010904/DTD/svg10.dtd">
<svg version="1.0" xmlns="http://www.w3.org/2000/svg"
 width="400.000000pt" height="400.000000pt" viewBox="0 0 400.000000 400.000000"
 preserveAspectRatio="xMidYMid meet">
<metadata>
Created by potrace 1.11, written by Peter Selinger 2001-2013
</metadata>
<g transform="translate(0.000000,400.000000) scale(0.100000,-0.100000)"
fill="#000000" stroke="none">
<path d="M2135 3428 c-8 -40 -18 -84 -21 -98 -2 -14 -9 -47 -15 -75 -5 -27
-12 -61 -14 -75 -2 -14 -11 -54 -19 -90 -8 -36 -26 -117 -40 -180 -23 -103
-30 -140 -42 -205 -2 -11 -10 -50 -18 -86 -8 -36 -17 -77 -20 -90 -2 -13 -7
-35 -10 -49 -3 -14 -8 -38 -11 -55 -8 -43 -14 -69 -31 -141 -8 -35 -13 -67
-13 -71 1 -4 -1 -15 -4 -23 -3 -8 -11 -40 -17 -70 -5 -30 -12 -64 -15 -75 -17
-78 -76 -366 -81 -390 -3 -16 -9 -46 -14 -65 -5 -19 -12 -51 -15 -70 -3 -19
-11 -55 -16 -80 -6 -25 -13 -56 -15 -70 -3 -14 -14 -63 -24 -110 -10 -47 -21
-98 -24 -115 -9 -50 -15 -76 -20 -93 -3 -9 -8 -33 -11 -52 -3 -19 -15 -77 -26
-129 -23 -107 -27 -124 -35 -166 -3 -16 -12 -59 -20 -95 -9 -36 -17 -75 -18
-88 l-3 -22 215 2 216 3 8 36 c13 64 19 93 24 119 4 24 25 119 44 205 16 68
24 110 26 120 2 20 17 91 35 170 10 45 20 92 23 105 18 94 38 187 43 200 3 8
6 18 5 22 -1 7 20 111 47 228 5 25 12 59 15 75 3 17 8 41 11 55 3 14 8 36 11
50 3 14 10 43 15 65 5 22 12 53 14 68 2 16 14 72 25 125 12 53 24 108 26 122
3 14 9 44 15 68 5 23 12 59 15 80 3 20 10 45 15 55 5 9 8 17 5 17 -2 0 0 17 5
38 4 20 11 52 14 70 3 19 14 71 25 117 11 46 22 98 25 117 3 18 12 62 20 98 8
36 16 76 19 90 2 14 9 43 14 65 6 22 13 54 15 70 6 38 54 259 66 302 5 18 6
34 3 37 -3 3 -101 6 -218 6 l-213 0 -16 -72z"/>
<path d="M1220 2856 c-97 -67 -301 -196 -309 -196 -5 0 -11 -3 -13 -8 -4 -10
-317 -212 -329 -212 -5 0 -9 -4 -9 -10 0 -5 -5 -10 -10 -10 -6 0 -16 -5 -23
-10 -27 -24 -133 -89 -144 -90 -7 0 -13 -4 -13 -9 0 -7 -140 -100 -191 -126
-10 -5 -19 -13 -19 -17 0 -5 -5 -8 -11 -8 -6 0 -25 -11 -43 -25 -18 -14 -36
-25 -40 -25 -4 0 -20 -10 -36 -22 l-30 -22 0 -236 0 -237 48 -30 c26 -17 88
-57 137 -89 50 -33 95 -61 100 -64 6 -3 55 -35 110 -71 55 -36 111 -72 125
-79 13 -7 29 -17 34 -22 6 -5 49 -33 96 -63 47 -30 90 -59 97 -65 7 -5 15 -10
18 -10 4 0 32 -17 63 -39 105 -71 233 -151 242 -151 6 0 10 -4 10 -10 0 -5 6
-10 14 -10 8 0 16 -4 18 -8 3 -7 133 -92 140 -92 2 0 3 130 3 289 l0 289 -110
68 c-60 38 -134 83 -162 101 -29 19 -56 33 -59 32 -4 0 -10 3 -13 8 -3 5 -69
48 -146 95 -77 47 -166 102 -198 122 l-58 37 93 57 c52 31 162 100 246 152 83
52 160 100 170 105 26 15 226 137 232 142 4 4 9 593 5 593 0 0 -16 -11 -35
-24z"/>
<path d="M2745 2581 c0 -159 2 -291 5 -294 3 -2 38 -24 78 -48 40 -24 92 -56
115 -71 23 -15 49 -31 57 -35 8 -3 33 -19 55 -33 22 -15 56 -37 75 -48 19 -11
64 -38 100 -60 36 -23 85 -53 110 -68 25 -15 69 -43 98 -62 l53 -33 -57 -35
c-31 -19 -58 -34 -61 -34 -2 0 -9 -5 -16 -11 -15 -13 -356 -226 -377 -236 -8
-3 -44 -25 -80 -48 -36 -23 -85 -54 -110 -69 l-46 -29 0 -288 c1 -159 2 -289
3 -289 2 0 82 50 113 70 8 5 35 23 60 39 25 16 124 79 220 141 96 62 197 126
224 144 155 98 273 176 283 185 7 6 14 10 15 9 2 -1 55 32 118 73 63 41 133
86 155 99 68 41 65 27 65 283 l0 235 -37 23 c-21 13 -40 25 -43 28 -3 4 -14
11 -25 17 -48 27 -310 200 -313 207 -2 4 -8 7 -12 7 -5 0 -67 37 -137 83 -70
46 -166 108 -213 138 -199 128 -276 178 -287 188 -7 6 -15 11 -18 11 -3 0 -39
23 -80 50 -41 28 -78 50 -82 50 -5 0 -9 -130 -8 -289z"/>
</g>
</svg>
